<?xml version="1.0" standalone="no"?>
<!DOCTYPE svg PUBLIC "-//W3C//DTD SVG 20010904//EN"
 "http://www.w3.org/TR/2001/REC-SVG-20010904/DTD/svg10.dtd">
<svg version="1.0" xmlns="http://www.w3.org/2000/svg"
 width="306.000000pt" height="200.000000pt" viewBox="0 0 306.000000 200.000000"
 preserveAspectRatio="xMidYMid meet">

<g transform="translate(0.000000,200.000000) scale(0.100000,-0.100000)"
fill="#000000" stroke="none">
<path d="M1072 1983 c-113 -34 -180 -130 -169 -241 6 -72 26 -114 84 -173 l44
-46 14 -129 c38 -354 48 -818 19 -944 -19 -86 -55 -130 -106 -130 -39 0 -54
14 -113 105 -96 151 -282 341 -372 382 -93 43 -225 33 -386 -27 -32 -12 -57
-24 -55 -25 2 -2 37 1 78 7 133 18 280 -5 348 -56 52 -38 89 -95 144 -223 62
-145 100 -205 167 -265 83 -75 180 -95 291 -62 45 13 68 29 130 93 78 78 126
159 151 251 16 63 24 688 10 898 l-11 166 34 36 c42 44 53 65 67 129 14 68 -7
144 -53 188 -73 71 -208 99 -316 66z m3 -288 c89 -24 174 -17 262 24 65 29 67
30 38 6 -111 -93 -332 -97 -420 -9 -48 48 -44 59 10 25 25 -16 75 -37 110 -46z"/>
<path d="M2605 1681 c-142 -52 -239 -113 -340 -216 l-73 -73 73 -74 c120 -122
162 -237 153 -419 -6 -115 -44 -250 -97 -346 l-29 -53 61 0 62 0 84 218 84
218 111 0 c122 0 198 13 293 51 57 23 63 28 69 60 9 48 -2 184 -21 258 -40
156 -144 295 -271 363 -71 37 -90 38 -159 13z m221 -149 c52 -38 120 -139 138
-206 21 -74 31 -176 17 -176 -6 0 -11 7 -11 15 0 34 -64 178 -109 247 -27 40
-71 97 -100 126 -28 29 -51 55 -51 58 0 8 73 -32 116 -64z"/>
<path d="M1421 1574 c0 -11 3 -14 6 -6 3 7 2 16 -1 19 -3 4 -6 -2 -5 -13z"/>
<path d="M1572 1472 c-38 -51 -39 -53 -7 -17 33 36 60 75 53 75 -2 0 -22 -26
-46 -58z"/>
<path d="M1433 1485 c0 -22 2 -30 4 -17 2 12 2 30 0 40 -3 9 -5 -1 -4 -23z"/>
<path d="M1655 1409 c-110 -27 -188 -134 -230 -315 -26 -113 -29 -199 -11
-331 19 -134 13 -196 -25 -298 -43 -115 -175 -268 -338 -392 l-86 -66 129 7
c495 25 859 174 1070 438 113 141 170 277 182 432 21 265 -103 450 -341 511
-74 19 -296 28 -350 14z m276 -364 c56 -20 103 -57 136 -106 32 -49 35 -130 8
-199 -21 -52 -93 -166 -143 -228 -63 -77 -190 -163 -305 -207 l-68 -25 26 42
c94 152 125 272 125 498 1 176 6 201 51 226 32 18 117 17 170 -1z"/>
<path d="M1472 1390 c0 -14 2 -19 5 -12 2 6 2 18 0 25 -3 6 -5 1 -5 -13z"/>
</g>
</svg>
